Coordinates
version=1
nRows=13
nColumns=38
inDegrees=yes

Units are S.I. units (second, meters, Newtons, ...)
Angles are in degrees.

endheader
time	pelvis_tilt	pelvis_list	pelvis_rotation	pelvis_tx	pelvis_ty	pelvis_tz	hip_flexion_r	hip_adduction_r	hip_rotation_r	knee_angle_r	ankle_angle_r	subtalar_angle_r	mtp_angle_r	hip_flexion_l	hip_adduction_l	hip_rotation_l	knee_angle_l	ankle_angle_l	subtalar_angle_l	mtp_angle_l	lumbar_extension	lumbar_bending	lumbar_rotation	arm_flex_r	arm_add_r	arm_rot_r	elbow_flex_r	pro_sup_r	wrist_flex_r	wrist_dev_r	arm_flex_l	arm_add_l	arm_rot_l	elbow_flex_l	pro_sup_l	wrist_flex_l	wrist_dev_l
      1.65000000	     -1.04545682	      1.72202484	     -5.31048405	      0.60468427	      0.87113479	     -0.18337767	    -10.84799245	     -0.99198190	     -1.79858043	    -25.96108598	     18.50013295	      0.17386160	      0.00000000	     32.47336727	      0.86719879	     -9.94980859	    -20.44691746	     -0.08156589	     -5.27470866	      0.00000000	     -3.03789271	     -0.16889169	     11.17041742	     12.24915470	    -17.66759413	     27.95245067	     59.75456270	     44.78128201	      0.00000000	      0.00000000	    -23.84785797	     -6.13018789	     18.11737235	     17.23921233	     44.78128201	      0.00000000	      0.00000000
      1.66000000	     -1.04613283	      2.73635173	     -5.16756945	      0.62130541	      0.87119067	     -0.18522327	    -10.15866906	     -2.73136998	     -2.95023981	    -29.01215441	     16.78678858	      2.40449523	      0.00000000	     32.04917166	      2.06766650	    -10.54763251	    -20.35226583	     -1.53503258	     -6.46539339	      0.00000000	     -2.61576487	     -1.31719610	     10.82078870	     11.71315510	    -17.10779615	     27.86562739	     58.46894285	     44.79074484	      0.00000000	      0.00000000	    -23.81309700	     -6.17490631	     17.52507347	     17.24959677	     44.79074484	      0.00000000	      0.00000000
      1.67000000	     -0.93844337	      3.52208459	     -4.67314489	      0.63826190	      0.87212183	     -0.18774648	     -9.78719861	     -4.10447662	     -4.08801728	    -31.61866249	     13.92268802	      3.80081975	      0.00000000	     31.23581669	      3.43373040	     -9.48492611	    -20.42034002	     -3.79233526	     -7.25999868	      0.00000000	     -2.32389271	     -2.17138356	     10.16469640	     11.09475019	    -16.67238841	     28.04166508	     57.28278366	     44.79870338	      0.00000000	      0.00000000	    -23.63241773	     -6.17881432	     17.07138522	     17.34087938	     44.79870338	      0.00000000	      0.00000000
      1.68000000	     -1.07132026	      4.31679890	     -4.48183065	      0.65445095	      0.87281374	     -0.18954106	     -8.66444691	     -5.28710368	     -4.24171865	    -34.79895385	     10.59901951	      3.59578572	      0.00000000	     30.64409303	      4.45949761	     -9.05609771	    -20.83326576	     -5.29214277	     -8.44447245	      0.00000000	     -1.85711086	     -3.04422477	      9.80663989	     10.23854021	    -16.33414969	     28.24322109	     56.73670046	     44.80095411	      0.00000000	      0.00000000	    -23.32611344	     -6.26263695	     16.95846645	     17.44643534	     44.80095411	      0.00000000	      0.00000000
      1.69000000	     -1.11773361	      5.15926722	     -4.14894780	      0.67051442	      0.87403609	     -0.19147155	     -7.43456093	     -6.62584602	     -4.97997015	    -38.12343332	      6.51135641	      3.55590036	      0.00000000	     30.09726697	      5.84035243	     -8.26608945	    -21.38757494	     -5.08603643	    -10.77093282	      0.00000000	     -1.52272454	     -4.01598128	      9.31507491	      9.84420748	    -15.59185499	     28.49440728	     54.40782004	     44.81134931	      0.00000000	      0.00000000	    -22.91492270	     -6.35944476	     16.49531713	     17.68284064	     44.81134931	      0.00000000	      0.00000000
      1.70000000	     -0.89217905	      5.77130595	     -3.81549523	      0.68655846	      0.87580464	     -0.19338516	     -6.39509759	     -7.72535489	     -5.65580252	    -41.29027422	      1.61111043	      3.00140522	      0.00000000	     29.70073184	      6.82168392	     -7.99138579	    -23.00735546	     -4.26889271	    -11.35237033	      0.00000000	     -1.59238433	     -4.72316226	      8.81918164	      9.02539739	    -15.32360985	     28.69195088	     54.03446781	     44.81222042	      0.00000000	      0.00000000	    -22.34032229	     -6.43793589	     16.47045706	     17.85963831	     44.81222042	      0.00000000	      0.00000000
      1.71000000	     -1.08789226	      6.35546058	     -3.37172587	      0.70206142	      0.87718939	     -0.19545683	     -4.61222425	     -8.31864013	     -5.50931392	    -44.52434275	     -4.30801672	     -0.43379324	      0.00000000	     29.45571691	      8.10598644	     -6.32779408	    -23.95114301	     -4.05566970	    -12.95838570	      0.00000000	     -1.23421734	     -5.36142376	      8.36909337	      8.21066702	    -14.83933614	     28.87293777	     52.35422898	     44.81624259	      0.00000000	      0.00000000	    -21.59102949	     -6.69454110	     16.40005692	     18.19822996	     44.81624259	      0.00000000	      0.00000000
      1.72000000	     -1.01560503	      6.87810534	     -2.98802537	      0.71726839	      0.87905703	     -0.19724039	     -3.02244133	     -8.86262212	     -5.14901620	    -47.63459286	     -9.77142616	     -2.94384780	      0.00000000	     28.94332690	      9.01379068	     -5.78840589	    -24.99808308	     -3.22303955	    -13.60809781	      0.00000000	     -1.23766154	     -5.98518125	      7.76702965	      8.34779661	    -13.98005175	     30.00257962	     48.32160267	     44.83140027	      0.00000000	      0.00000000	    -20.88540430	     -6.90355623	     16.33702787	     18.85920532	     44.83140027	      0.00000000	      0.00000000
      1.73000000	     -1.00077184	      7.39580514	     -2.62975132	      0.73189602	      0.88068553	     -0.19880612	     -1.23160499	     -9.35906404	     -4.70238518	    -50.82525509	    -12.88115556	     -4.78039760	      0.00000000	     28.28419438	      9.85573336	     -5.59722787	    -25.66475651	     -2.09055845	    -13.64317567	      0.00000000	     -1.26683032	     -6.61521360	      7.15589376	      8.60011426	    -13.71236141	     33.41558577	     45.05678115	     44.86240146	      0.00000000	      0.00000000	    -20.05706651	     -7.19733131	     16.45885701	     19.47359180	     44.86240146	      0.00000000	      0.00000000
      1.74000000	     -1.04327860	      8.13144420	     -2.33344587	      0.74585050	      0.88206076	     -0.20047961	      0.86312988	    -10.38362868	     -4.63227949	    -54.31213179	    -12.58414712	     -5.43591713	      0.00000000	     27.53095210	     10.88564656	     -5.59072076	    -25.90571997	     -1.04993659	    -13.51824920	      0.00000000	     -1.34277304	     -7.44348213	      6.69777990	      7.79846473	    -13.42334760	     33.59279852	     44.50773942	     44.86426290	      0.00000000	      0.00000000	    -18.96378581	     -7.48746970	     16.50791399	     19.83768661	     44.86426290	      0.00000000	      0.00000000
      1.75000000	     -0.99890680	      8.82900969	     -1.99777019	      0.75966958	      0.88356238	     -0.20213573	      2.89967354	    -11.48804715	     -4.61862668	    -57.74952705	    -10.33676296	     -5.54127391	      0.00000000	     26.53395393	     11.86605145	     -5.56899372	    -25.91580867	      0.10418729	    -13.04698489	      0.00000000	     -1.54347679	     -8.23774540	      6.06181162	      7.41796703	    -12.77576421	     33.82345018	     42.58435249	     44.86961962	      0.00000000	      0.00000000	    -17.95847755	     -7.85987012	     16.88356566	     20.58286155	     44.86961962	      0.00000000	      0.00000000
      1.76000000	     -1.05582324	      9.41849513	     -1.62481784	      0.77313846	      0.88501172	     -0.20369294	      5.26482991	    -12.28751299	     -4.33619355	    -60.99408311	     -9.04794051	     -6.57587825	      0.00000000	     25.52743315	     12.75788904	     -5.31601507	    -25.70625168	      1.05807304	    -12.76218323	      0.00000000	     -1.68367447	     -8.89071893	      5.41131436	      6.68198779	    -12.47266567	     34.03910456	     41.89569157	     44.87096643	      0.00000000	      0.00000000	    -16.75786277	     -8.20580502	     16.99636253	     21.04565378	     44.87096643	      0.00000000	      0.00000000
      1.77000000	     -1.05364746	      9.70163577	     -1.19055312	      0.78631319	      0.88665079	     -0.20523474	      7.44857445	    -12.66469229	     -4.28380081	    -63.68214087	     -8.27161850	     -7.73432846	      0.00000000	     24.42435832	     13.38817281	     -4.88889950	    -25.50548660	      2.16431917	    -12.56360404	      0.00000000	     -1.95656875	     -9.15759004	      4.58551644	      6.12290472	    -12.21948090	     34.16634815	     41.41315567	     44.87158323	      0.00000000	      0.00000000	    -15.53688489	     -8.40445809	     17.08508721	     21.50830291	     44.87158323	      0.00000000	      0.00000000
